# Blender v2.90.1 OBJ File: 'coin.blend'
# www.blender.org
o Cylinder
v -0.190061 -0.309017 -0.951057
v 0.190061 -0.248283 -0.764136
v -0.190061 -0.587785 -0.809017
v 0.190061 -0.472262 -0.650013
v -0.190061 -0.809017 -0.587785
v 0.190061 -0.650013 -0.472262
v -0.190061 -0.951057 -0.309017
v 0.190061 -0.764136 -0.248283
v -0.190061 -0.951056 0.309017
v 0.190061 -0.764136 0.248283
v -0.190061 -0.809017 0.587785
v 0.190061 -0.650013 0.472262
v -0.190061 -0.587785 0.809017
v 0.190061 -0.472262 0.650013
v -0.190061 -0.309017 0.951057
v 0.190061 -0.248283 0.764136
v 0.190061 -0.309017 -0.951057
v 0.190061 -0.587785 -0.809017
v 0.190061 -0.809017 -0.587785
v 0.190061 -0.951057 -0.309017
v 0.190061 -0.951056 0.309017
v 0.190061 -0.809017 0.587785
v 0.190061 -0.587785 0.809017
v 0.190061 -0.309017 0.951057
v 0.044886 -0.248283 -0.764136
v 0.044886 -0.472262 -0.650013
v 0.044886 -0.650013 -0.472262
v 0.044886 -0.764136 -0.248283
v 0.044886 -0.764136 0.248283
v 0.044886 -0.650013 0.472262
v 0.044886 -0.472262 0.650013
v 0.044886 -0.248283 0.764136
v 0.044886 -0.207170 -0.197894
v 0.044886 -0.203048 0.197894
v 0.147328 -0.207170 -0.197894
v 0.147328 -0.203048 0.197894
v -0.190061 -0.000000 -1.000000
v 0.190061 0.000000 -0.803460
v -0.190061 0.309017 -0.951057
v 0.190061 0.248283 -0.764136
v -0.190061 0.587785 -0.809017
v 0.190061 0.472262 -0.650013
v -0.190061 0.809017 -0.587785
v 0.190061 0.650013 -0.472262
v -0.190061 0.951057 -0.309017
v 0.190061 0.764136 -0.248283
v -0.190061 0.951056 0.309017
v 0.190061 0.764136 0.248283
v -0.190061 0.809017 0.587785
v 0.190061 0.650013 0.472262
v -0.190061 0.587785 0.809017
v 0.190061 0.472262 0.650013
v -0.190061 0.309017 0.951057
v 0.190061 0.248283 0.764136
v -0.190061 -0.000000 1.000000
v 0.190061 0.000000 0.803460
v 0.190061 0.309017 -0.951057
v 0.190061 0.000000 -1.000000
v 0.190061 0.587785 -0.809017
v 0.190061 0.809017 -0.587785
v 0.190061 0.951057 -0.309017
v 0.190061 0.951056 0.309017
v 0.190061 0.809017 0.587785
v 0.190061 0.587785 0.809017
v 0.190061 0.309017 0.951057
v 0.190061 0.000000 1.000000
v 0.044885 0.248283 -0.764136
v 0.044885 0.000000 -0.803460
v 0.044885 0.472262 -0.650013
v 0.044885 0.650013 -0.472262
v 0.044885 0.764136 -0.248283
v 0.044885 0.764136 0.248283
v 0.044885 0.650013 0.472262
v 0.044885 0.472262 0.650013
v 0.044885 0.248283 0.764136
v 0.044885 0.000000 0.803460
v 0.044885 0.000000 -0.601928
v 0.044885 0.000000 0.600085
v 0.044885 0.207170 -0.197894
v 0.044885 0.203048 0.197894
v 0.147328 0.000000 -0.601928
v 0.147328 0.000000 0.600085
v 0.147328 0.207170 -0.197894
v 0.147328 0.203048 0.197894
v -0.190061 -0.309017 0.951057
v 0.190061 -0.248283 0.764136
v -0.190061 -0.587785 0.809017
v 0.190061 -0.472262 0.650013
v -0.190061 -0.809017 0.587785
v 0.190061 -0.650013 0.472262
v -0.190061 -0.951057 0.309017
v 0.190061 -0.764136 0.248283
v -0.190061 -1.000000 0.000000
v 0.190061 -0.803460 0.000000
v -0.190061 -0.951056 -0.309017
v 0.190061 -0.764136 -0.248283
v -0.190061 -0.809017 -0.587785
v 0.190061 -0.650013 -0.472262
v -0.190061 -0.587785 -0.809017
v 0.190061 -0.472262 -0.650013
v -0.190061 -0.309017 -0.951057
v 0.190061 -0.248283 -0.764136
v 0.190061 -0.309017 0.951057
v 0.190061 -0.587785 0.809017
v 0.190061 -0.809017 0.587785
v 0.190061 -0.951057 0.309017
v 0.190061 -1.000000 0.000000
v 0.190061 -0.951056 -0.309017
v 0.190061 -0.809017 -0.587785
v 0.190061 -0.587785 -0.809017
v 0.190061 -0.309017 -0.951057
v 0.044886 -0.248283 0.764136
v 0.044886 -0.472262 0.650013
v 0.044886 -0.650013 0.472262
v 0.044886 -0.764136 0.248283
v 0.044886 -0.803460 0.000000
v 0.044886 -0.764136 -0.248283
v 0.044886 -0.650013 -0.472262
v 0.044886 -0.472262 -0.650013
v 0.044886 -0.248283 -0.764136
v 0.044886 -0.207170 0.197894
v 0.044886 -0.598836 0.000000
v 0.044886 -0.203048 -0.197894
v 0.147328 -0.207170 0.197894
v 0.147328 -0.598836 0.000000
v 0.147328 -0.203048 -0.197894
v -0.190061 -0.000000 1.000000
v 0.190061 0.000000 0.803460
v -0.190061 0.309017 0.951057
v 0.190061 0.248283 0.764136
v -0.190061 0.587785 0.809017
v 0.190061 0.472262 0.650013
v -0.190061 0.809017 0.587785
v 0.190061 0.650013 0.472262
v -0.190061 0.951057 0.309017
v 0.190061 0.764136 0.248283
v -0.190061 1.000000 0.000000
v 0.190061 0.803460 0.000000
v -0.190061 0.951056 -0.309017
v 0.190061 0.764136 -0.248283
v -0.190061 0.809017 -0.587785
v 0.190061 0.650013 -0.472262
v -0.190061 0.587785 -0.809017
v 0.190061 0.472262 -0.650013
v -0.190061 0.309017 -0.951057
v 0.190061 0.248283 -0.764136
v -0.190061 -0.000000 -1.000000
v 0.190061 0.000000 -0.803460
v 0.190061 0.309017 0.951057
v 0.190061 0.000000 1.000000
v 0.190061 0.587785 0.809017
v 0.190061 0.809017 0.587785
v 0.190061 0.951057 0.309017
v 0.190061 1.000000 0.000000
v 0.190061 0.951056 -0.309017
v 0.190061 0.809017 -0.587785
v 0.190061 0.587785 -0.809017
v 0.190061 0.309017 -0.951057
v 0.190061 0.000000 -1.000000
v 0.044885 0.248283 0.764136
v 0.044885 0.000000 0.803460
v 0.044885 0.472262 0.650013
v 0.044885 0.650013 0.472262
v 0.044885 0.764136 0.248283
v 0.044885 0.803460 0.000000
v 0.044885 0.764136 -0.248283
v 0.044885 0.650013 -0.472262
v 0.044885 0.472262 -0.650013
v 0.044885 0.248283 -0.764136
v 0.044885 0.000000 -0.803460
v 0.044885 0.000000 0.601928
v 0.044885 0.000000 -0.600085
v 0.044885 0.207170 0.197894
v 0.044885 0.598836 0.000000
v 0.044885 0.203048 -0.197894
v 0.147328 0.000000 0.601928
v 0.147328 0.000000 -0.600085
v 0.147328 0.207170 0.197894
v 0.147328 0.598836 0.000000
v 0.147328 0.203048 -0.197894
vt 1.000000 1.000000
vt 0.950000 0.500000
vt 1.000000 0.500000
vt 0.950000 1.000000
vt 0.900000 0.500000
vt 0.900000 1.000000
vt 0.850000 0.500000
vt 0.850000 1.000000
vt 0.800000 0.500000
vt 0.800000 1.000000
vt 0.750000 0.500000
vt 0.750000 1.000000
vt 0.700000 0.500000
vt 0.700000 1.000000
vt 0.650000 0.500000
vt 0.650000 1.000000
vt 0.600000 0.500000
vt 0.600000 1.000000
vt 0.550000 0.500000
vt 0.550000 1.000000
vt 0.500000 0.500000
vt 0.433393 0.309588
vt 0.442830 0.250000
vt 0.442830 0.250000
vt 0.944164 0.108932
vt 0.824164 0.021746
vt 0.824164 0.478254
vt 0.250000 0.442830
vt 0.324164 0.478254
vt 0.250000 0.490000
vt 0.309588 0.433393
vt 0.391068 0.444164
vt 0.406003 0.363343
vt 0.363343 0.406003
vt 0.444164 0.391068
vt 0.478254 0.324164
vt 0.433393 0.190412
vt 0.490000 0.250000
vt 0.406003 0.136657
vt 0.478254 0.175836
vt 0.363343 0.093997
vt 0.444164 0.108932
vt 0.309588 0.066607
vt 0.391068 0.055836
vt 0.250000 0.057170
vt 0.324164 0.021746
vt 0.433393 0.190412
vt 0.406003 0.136657
vt 0.363343 0.093997
vt 0.309588 0.433393
vt 0.309588 0.066607
vt 0.363343 0.406003
vt 0.250000 0.057170
vt 0.406003 0.363343
vt 0.433393 0.309588
vt 0.250000 0.105980
vt 0.298731 0.202505
vt 0.250000 0.105980
vt 0.298731 0.202505
vt 0.299721 0.297495
vt 0.250000 0.394463
vt 0.299721 0.297495
vt 0.393721 0.250000
vt 0.393721 0.250000
vt 0.250000 0.394463
vt 0.950000 0.500000
vt 0.900000 0.500000
vt 0.950000 1.000000
vt 0.850000 0.500000
vt 0.900000 1.000000
vt 0.800000 0.500000
vt 0.850000 1.000000
vt 0.750000 0.500000
vt 0.800000 1.000000
vt 0.700000 0.500000
vt 0.750000 1.000000
vt 0.650000 0.500000
vt 0.700000 1.000000
vt 0.600000 0.500000
vt 0.650000 1.000000
vt 0.550000 0.500000
vt 0.600000 1.000000
vt 0.550000 1.000000
vt 0.442830 0.250000
vt 0.433393 0.309588
vt 0.442830 0.250000
vt 0.891068 0.055836
vt 0.978254 0.175836
vt 0.891068 0.444164
vt 0.324164 0.478254
vt 0.309588 0.433393
vt 0.363343 0.406003
vt 0.391068 0.444164
vt 0.406003 0.363343
vt 0.444164 0.391068
vt 0.490000 0.250000
vt 0.433393 0.190412
vt 0.444164 0.108932
vt 0.406003 0.136657
vt 0.363343 0.093997
vt 0.391068 0.055836
vt 0.309588 0.066607
vt 0.324164 0.021746
vt 0.433393 0.190412
vt 0.406003 0.136657
vt 0.363343 0.093997
vt 0.309588 0.433393
vt 0.309588 0.066607
vt 0.363343 0.406003
vt 0.406003 0.363343
vt 0.433393 0.309588
vt 0.298731 0.202505
vt 0.393721 0.250000
vt 0.299721 0.297495
vt 0.298731 0.202505
vt 0.393721 0.250000
vt 0.299721 0.297495
vt 0.000000 0.000000
vt 0.000000 0.000000
vt 0.000000 0.000000
vt 0.950000 0.500000
vt 1.000000 1.000000
vt 1.000000 0.500000
vt 0.900000 0.500000
vt 0.950000 1.000000
vt 0.850000 0.500000
vt 0.900000 1.000000
vt 0.800000 0.500000
vt 0.850000 1.000000
vt 0.800000 1.000000
vt 0.700000 0.500000
vt 0.650000 0.500000
vt 0.700000 1.000000
vt 0.600000 0.500000
vt 0.650000 1.000000
vt 0.550000 0.500000
vt 0.600000 1.000000
vt 0.500000 0.500000
vt 0.550000 1.000000
vt 0.433393 0.309588
vt 0.891068 0.055836
vt 0.978254 0.175836
vt 0.891068 0.444164
vt 0.250000 0.442830
vt 0.324164 0.478254
vt 0.309588 0.433393
vt 0.363343 0.406003
vt 0.391068 0.444164
vt 0.406003 0.363343
vt 0.444164 0.391068
vt 0.433393 0.190412
vt 0.444164 0.108932
vt 0.406003 0.136657
vt 0.363343 0.093997
vt 0.391068 0.055836
vt 0.309588 0.066607
vt 0.324164 0.021746
vt 0.250000 0.057170
vt 0.433393 0.190412
vt 0.406003 0.136657
vt 0.363343 0.093997
vt 0.309588 0.433393
vt 0.309588 0.066607
vt 0.363343 0.406003
vt 0.250000 0.057170
vt 0.406003 0.363343
vt 0.433393 0.309588
vt 0.298731 0.202505
vt 0.250000 0.105980
vt 0.250000 0.105980
vt 0.250000 0.394463
vt 0.299721 0.297495
vt 0.298731 0.202505
vt 0.299721 0.297495
vt 0.250000 0.394463
vt 0.950000 0.500000
vt 0.950000 1.000000
vt 0.900000 0.500000
vt 0.900000 1.000000
vt 0.850000 0.500000
vt 0.850000 1.000000
vt 0.800000 0.500000
vt 0.800000 1.000000
vt 0.700000 0.500000
vt 0.700000 1.000000
vt 0.650000 0.500000
vt 0.650000 1.000000
vt 0.600000 0.500000
vt 0.600000 1.000000
vt 0.550000 0.500000
vt 0.550000 1.000000
vt 0.433393 0.309588
vt 0.944164 0.108932
vt 0.824164 0.021746
vt 0.824164 0.478254
vt 0.324164 0.478254
vt 0.250000 0.490000
vt 0.309588 0.433393
vt 0.391068 0.444164
vt 0.406003 0.363343
vt 0.363343 0.406003
vt 0.444164 0.391068
vt 0.478254 0.324164
vt 0.433393 0.190412
vt 0.406003 0.136657
vt 0.478254 0.175836
vt 0.363343 0.093997
vt 0.444164 0.108932
vt 0.309588 0.066607
vt 0.391068 0.055836
vt 0.324164 0.021746
vt 0.433393 0.190412
vt 0.406003 0.136657
vt 0.363343 0.093997
vt 0.309588 0.433393
vt 0.309588 0.066607
vt 0.363343 0.406003
vt 0.406003 0.363343
vt 0.433393 0.309588
vt 0.298731 0.202505
vt 0.298731 0.202505
vt 0.299721 0.297495
vt 0.299721 0.297495
vt 0.000000 0.000000
vt 0.000000 0.000000
vt 0.000000 0.000000
vt 0.500000 1.000000
vt 0.750000 0.010000
vt 0.750000 0.490000
vt 0.891068 0.444164
vt 0.944164 0.391068
vt 0.978254 0.324164
vt 0.990000 0.250000
vt 0.978254 0.175836
vt 0.891068 0.055836
vt 0.250000 0.010000
vt 0.250000 0.442830
vt 0.824164 0.478254
vt 0.824164 0.021746
vt 0.944164 0.108932
vt 0.990000 0.250000
vt 0.978254 0.324164
vt 0.944164 0.391068
vt 0.478254 0.324164
vt 0.478254 0.175836
vt 0.000000 0.000000
vt 0.500000 1.000000
vt 0.824164 0.478254
vt 0.750000 0.490000
vt 0.750000 0.010000
vt 0.824164 0.021746
vt 0.944164 0.108932
vt 0.978254 0.324164
vt 0.944164 0.391068
vt 0.478254 0.324164
vt 0.478254 0.175836
vt 0.250000 0.010000
vt 0.250000 0.442830
vt 0.891068 0.444164
vt 0.944164 0.391068
vt 0.978254 0.324164
vt 0.978254 0.175836
vt 0.891068 0.055836
vt 0.000000 0.000000
vn 0.0000 -0.1564 -0.9877
vn 0.0000 -0.4540 -0.8910
vn 0.0000 -0.7071 -0.7071
vn 0.0000 -0.8910 -0.4540
vn 0.0000 -0.9877 -0.1564
vn 0.0000 -0.9877 0.1564
vn 0.0000 -0.8910 0.4540
vn 0.0000 -0.7071 0.7071
vn 0.0000 -0.4540 0.8910
vn 0.0000 -0.1564 0.9877
vn 0.0000 0.9877 0.1564
vn -1.0000 -0.0000 0.0000
vn 1.0000 0.0000 0.0000
vn 0.0000 0.9877 -0.1564
vn 0.0000 0.8910 -0.4540
vn 0.0000 0.7071 -0.7071
vn -0.0000 0.1564 0.9877
vn 0.0000 0.4540 -0.8910
vn 0.0000 0.4540 0.8910
vn 0.0000 0.1564 -0.9877
vn 0.0000 0.7071 0.7071
vn 0.0000 0.8910 0.4540
vn 0.0000 -0.8927 0.4507
vn 0.0000 -0.4510 -0.8925
vn -0.0000 -0.4472 0.8944
vn 0.0000 -0.8898 -0.4563
vn 0.0000 0.8927 0.4507
vn 0.0000 0.4510 -0.8925
vn 0.0000 -1.0000 0.0000
vn 0.0000 0.4472 0.8944
vn -0.0000 0.8898 -0.4563
vn 0.0000 -0.8927 -0.4507
vn 0.0000 -0.4510 0.8925
vn 0.0000 -0.4472 -0.8944
vn 0.0000 -0.8898 0.4563
vn 0.0000 0.8927 -0.4507
vn 0.0000 0.4510 0.8925
vn 0.0000 0.4472 -0.8944
vn -0.0000 0.8898 0.4563
s off
f 58/1/1 1/2/1 37/3/1
f 17/4/2 3/5/2 1/2/2
f 18/6/3 5/7/3 3/5/3
f 19/8/4 7/9/4 5/7/4
f 20/10/5 93/11/5 7/9/5
f 107/12/6 9/13/6 93/11/6
f 21/14/7 11/15/7 9/13/7
f 22/16/8 13/17/8 11/15/8
f 23/18/9 15/19/9 13/17/9
f 24/20/10 55/21/10 15/19/10
f 8/22/11 116/23/11 94/24/11
f 11/25/12 15/26/12 1/27/12
f 38/28/13 17/29/13 58/30/13
f 2/31/13 18/32/13 17/29/13
f 6/33/13 18/32/13 4/34/13
f 8/22/13 19/35/13 6/33/13
f 94/24/13 20/36/13 8/22/13
f 10/37/13 107/38/13 94/24/13
f 12/39/13 21/40/13 10/37/13
f 14/41/13 22/42/13 12/39/13
f 16/43/13 23/44/13 14/41/13
f 56/45/13 24/46/13 16/43/13
f 94/24/14 29/47/14 10/37/14
f 10/37/15 30/48/15 12/39/15
f 12/39/16 31/49/16 14/41/16
f 38/28/17 25/50/17 2/31/17
f 14/41/18 32/51/18 16/43/18
f 2/31/19 26/52/19 4/34/19
f 16/43/20 76/53/20 56/45/20
f 4/34/21 27/54/21 6/33/21
f 6/33/22 28/55/22 8/22/22
f 78/56/13 76/53/13 32/51/13
f 34/57/23 82/58/23 78/56/23
f 36/59/13 35/60/13 81/61/13
f 33/62/24 125/63/24 122/64/24
f 122/64/25 36/59/25 34/57/25
f 77/65/26 35/60/26 33/62/26
f 39/66/20 58/1/20 37/3/20
f 41/67/18 57/68/18 39/66/18
f 43/69/16 59/70/16 41/67/16
f 45/71/15 60/72/15 43/69/15
f 137/73/14 61/74/14 45/71/14
f 47/75/11 154/76/11 137/73/11
f 49/77/22 62/78/22 47/75/22
f 51/79/21 63/80/21 49/77/21
f 53/81/19 64/82/19 51/79/19
f 55/21/17 65/83/17 53/81/17
f 165/84/6 46/85/6 138/86/6
f 51/87/12 47/88/12 41/89/12
f 38/28/13 57/90/13 40/91/13
f 57/90/13 42/92/13 40/91/13
f 59/93/13 44/94/13 42/92/13
f 60/95/13 46/85/13 44/94/13
f 46/85/13 154/96/13 138/86/13
f 154/96/13 48/97/13 138/86/13
f 48/97/13 63/98/13 50/99/13
f 63/98/13 52/100/13 50/99/13
f 64/101/13 54/102/13 52/100/13
f 65/103/13 56/45/13 54/102/13
f 72/104/5 138/86/5 48/97/5
f 73/105/4 48/97/4 50/99/4
f 74/106/3 50/99/3 52/100/3
f 67/107/10 38/28/10 40/91/10
f 75/108/2 52/100/2 54/102/2
f 69/109/9 40/91/9 42/92/9
f 76/53/1 54/102/1 56/45/1
f 70/110/8 42/92/8 44/94/8
f 71/111/7 44/94/7 46/85/7
f 80/112/13 174/113/13 73/105/13
f 82/58/27 80/112/27 78/56/27
f 81/61/13 83/114/13 84/115/13
f 179/116/28 79/117/28 174/113/28
f 81/118/29 78/119/29 77/120/29
f 84/115/30 174/113/30 80/112/30
f 83/114/31 77/65/31 79/117/31
f 85/121/10 150/122/10 127/123/10
f 87/124/9 103/125/9 85/121/9
f 89/126/8 104/127/8 87/124/8
f 91/128/7 105/129/7 89/126/7
f 93/11/6 106/130/6 91/128/6
f 95/131/5 107/12/5 93/11/5
f 97/132/4 108/133/4 95/131/4
f 99/134/3 109/135/3 97/132/3
f 101/136/2 110/137/2 99/134/2
f 147/138/1 111/139/1 101/136/1
f 116/23/14 92/140/14 94/24/14
f 99/141/12 95/142/12 87/143/12
f 128/144/13 103/145/13 86/146/13
f 103/145/13 88/147/13 86/146/13
f 104/148/13 90/149/13 88/147/13
f 105/150/13 92/140/13 90/149/13
f 92/140/13 107/38/13 94/24/13
f 107/38/13 96/151/13 94/24/13
f 96/151/13 109/152/13 98/153/13
f 109/152/13 100/154/13 98/153/13
f 110/155/13 102/156/13 100/154/13
f 111/157/13 148/158/13 102/156/13
f 117/159/11 94/24/11 96/151/11
f 118/160/22 96/151/22 98/153/22
f 119/161/21 98/153/21 100/154/21
f 112/162/20 128/144/20 86/146/20
f 120/163/19 100/154/19 102/156/19
f 113/164/18 86/146/18 88/147/18
f 170/165/17 102/156/17 148/158/17
f 114/166/16 88/147/16 90/149/16
f 115/167/15 90/149/15 92/140/15
f 123/168/13 122/64/13 118/160/13
f 177/169/32 123/168/32 172/170/32
f 176/171/13 124/172/13 126/173/13
f 125/63/33 121/174/33 122/64/33
f 126/173/34 122/64/34 123/168/34
f 124/172/35 171/175/35 121/174/35
f 150/122/17 129/176/17 127/123/17
f 149/177/19 131/178/19 129/176/19
f 151/179/21 133/180/21 131/178/21
f 152/181/22 135/182/22 133/180/22
f 153/183/11 137/73/11 135/182/11
f 154/76/14 139/184/14 137/73/14
f 155/185/15 141/186/15 139/184/15
f 156/187/16 143/188/16 141/186/16
f 157/189/18 145/190/18 143/188/18
f 158/191/20 147/138/20 145/190/20
f 136/192/5 165/84/5 138/86/5
f 141/193/12 145/194/12 129/195/12
f 128/144/13 149/196/13 150/197/13
f 130/198/13 151/199/13 149/196/13
f 134/200/13 151/199/13 132/201/13
f 136/192/13 152/202/13 134/200/13
f 138/86/13 153/203/13 136/192/13
f 140/204/13 154/96/13 138/86/13
f 142/205/13 155/206/13 140/204/13
f 144/207/13 156/208/13 142/205/13
f 146/209/13 157/210/13 144/207/13
f 148/158/13 158/211/13 146/209/13
f 138/86/6 166/212/6 140/204/6
f 140/204/7 167/213/7 142/205/7
f 142/205/8 168/214/8 144/207/8
f 128/144/1 160/215/1 130/198/1
f 144/207/9 169/216/9 146/209/9
f 130/198/2 162/217/2 132/201/2
f 146/209/10 170/165/10 148/158/10
f 132/201/3 163/218/3 134/200/3
f 134/200/4 164/219/4 136/192/4
f 172/170/13 170/165/13 169/216/13
f 175/220/36 177/169/36 172/170/36
f 180/221/13 178/222/13 176/171/13
f 173/223/37 179/116/37 174/113/37
f 172/224/29 176/225/29 171/226/29
f 174/113/38 180/221/38 175/220/38
f 171/175/39 178/222/39 173/223/39
f 58/1/1 17/4/1 1/2/1
f 17/4/2 18/6/2 3/5/2
f 18/6/3 19/8/3 5/7/3
f 19/8/4 20/10/4 7/9/4
f 20/10/5 107/12/5 93/11/5
f 107/12/6 21/14/6 9/13/6
f 21/14/7 22/16/7 11/15/7
f 22/16/8 23/18/8 13/17/8
f 23/18/9 24/20/9 15/19/9
f 24/20/10 66/227/10 55/21/10
f 8/22/11 28/55/11 116/23/11
f 55/228/12 37/229/12 1/27/12
f 1/27/12 3/230/12 5/231/12
f 5/231/12 7/232/12 93/233/12
f 93/233/12 9/234/12 11/25/12
f 11/25/12 13/235/12 15/26/12
f 15/26/12 55/228/12 1/27/12
f 1/27/12 5/231/12 93/233/12
f 93/233/12 11/25/12 1/27/12
f 38/28/13 2/31/13 17/29/13
f 2/31/13 4/34/13 18/32/13
f 6/33/13 19/35/13 18/32/13
f 8/22/13 20/36/13 19/35/13
f 94/24/13 107/38/13 20/36/13
f 10/37/13 21/40/13 107/38/13
f 12/39/13 22/42/13 21/40/13
f 14/41/13 23/44/13 22/42/13
f 16/43/13 24/46/13 23/44/13
f 56/45/13 66/236/13 24/46/13
f 94/24/14 116/23/14 29/47/14
f 10/37/15 29/47/15 30/48/15
f 12/39/16 30/48/16 31/49/16
f 38/28/17 68/237/17 25/50/17
f 14/41/18 31/49/18 32/51/18
f 2/31/19 25/50/19 26/52/19
f 16/43/20 32/51/20 76/53/20
f 4/34/21 26/52/21 27/54/21
f 6/33/22 27/54/22 28/55/22
f 26/52/13 25/50/13 77/65/13
f 25/50/13 68/237/13 77/65/13
f 77/65/13 33/62/13 26/52/13
f 122/64/13 34/57/13 30/48/13
f 34/57/13 78/56/13 31/49/13
f 31/49/13 78/56/13 32/51/13
f 33/62/13 122/64/13 27/54/13
f 27/54/13 26/52/13 33/62/13
f 116/23/13 28/55/13 122/64/13
f 28/55/13 27/54/13 122/64/13
f 30/48/13 29/47/13 122/64/13
f 29/47/13 116/23/13 122/64/13
f 31/49/13 30/48/13 34/57/13
f 34/57/23 36/59/23 82/58/23
f 81/61/13 82/58/13 36/59/13
f 36/59/13 125/63/13 35/60/13
f 33/62/24 35/60/24 125/63/24
f 122/64/25 125/63/25 36/59/25
f 77/65/26 81/61/26 35/60/26
f 39/66/20 57/68/20 58/1/20
f 41/67/18 59/70/18 57/68/18
f 43/69/16 60/72/16 59/70/16
f 45/71/15 61/74/15 60/72/15
f 137/73/14 154/76/14 61/74/14
f 47/75/11 62/78/11 154/76/11
f 49/77/22 63/80/22 62/78/22
f 51/79/21 64/82/21 63/80/21
f 53/81/19 65/83/19 64/82/19
f 55/21/17 66/227/17 65/83/17
f 165/84/6 71/111/6 46/85/6
f 39/238/12 37/229/12 55/228/12
f 55/228/12 53/239/12 51/87/12
f 51/87/12 49/240/12 47/88/12
f 47/88/12 137/241/12 45/242/12
f 45/242/12 43/243/12 47/88/12
f 43/243/12 41/89/12 47/88/12
f 41/89/12 39/238/12 55/228/12
f 55/228/12 51/87/12 41/89/12
f 38/28/13 58/30/13 57/90/13
f 57/90/13 59/93/13 42/92/13
f 59/93/13 60/95/13 44/94/13
f 60/95/13 61/244/13 46/85/13
f 46/85/13 61/244/13 154/96/13
f 154/96/13 62/245/13 48/97/13
f 48/97/13 62/245/13 63/98/13
f 63/98/13 64/101/13 52/100/13
f 64/101/13 65/103/13 54/102/13
f 65/103/13 66/236/13 56/45/13
f 72/104/5 165/84/5 138/86/5
f 73/105/4 72/104/4 48/97/4
f 74/106/3 73/105/3 50/99/3
f 67/107/10 68/237/10 38/28/10
f 75/108/2 74/106/2 52/100/2
f 69/109/9 67/107/9 40/91/9
f 76/53/1 75/108/1 54/102/1
f 70/110/8 69/109/8 42/92/8
f 71/111/7 70/110/7 44/94/7
f 68/237/13 67/107/13 77/65/13
f 67/107/13 69/109/13 77/65/13
f 69/109/13 70/110/13 79/117/13
f 70/110/13 71/111/13 174/113/13
f 71/111/13 165/84/13 174/113/13
f 165/84/13 72/104/13 174/113/13
f 72/104/13 73/105/13 174/113/13
f 73/105/13 74/106/13 80/112/13
f 74/106/13 75/108/13 78/56/13
f 75/108/13 76/53/13 78/56/13
f 78/56/13 80/112/13 74/106/13
f 174/113/13 79/117/13 70/110/13
f 79/117/13 77/65/13 69/109/13
f 82/58/27 84/115/27 80/112/27
f 84/115/13 82/58/13 81/61/13
f 83/114/13 179/116/13 84/115/13
f 179/116/28 83/114/28 79/117/28
f 81/118/29 82/246/29 78/119/29
f 84/115/30 179/116/30 174/113/30
f 83/114/31 81/61/31 77/65/31
f 85/121/10 103/125/10 150/122/10
f 87/124/9 104/127/9 103/125/9
f 89/126/8 105/129/8 104/127/8
f 91/128/7 106/130/7 105/129/7
f 93/11/6 107/12/6 106/130/6
f 95/131/5 108/133/5 107/12/5
f 97/132/4 109/135/4 108/133/4
f 99/134/3 110/137/3 109/135/3
f 101/136/2 111/139/2 110/137/2
f 147/138/1 159/247/1 111/139/1
f 116/23/14 115/167/14 92/140/14
f 85/248/12 127/249/12 147/250/12
f 147/250/12 101/251/12 99/141/12
f 99/141/12 97/252/12 95/142/12
f 95/142/12 93/233/12 91/253/12
f 91/253/12 89/254/12 95/142/12
f 89/254/12 87/143/12 95/142/12
f 87/143/12 85/248/12 147/250/12
f 147/250/12 99/141/12 87/143/12
f 128/144/13 150/197/13 103/145/13
f 103/145/13 104/148/13 88/147/13
f 104/148/13 105/150/13 90/149/13
f 105/150/13 106/255/13 92/140/13
f 92/140/13 106/255/13 107/38/13
f 107/38/13 108/256/13 96/151/13
f 96/151/13 108/256/13 109/152/13
f 109/152/13 110/155/13 100/154/13
f 110/155/13 111/157/13 102/156/13
f 111/157/13 159/257/13 148/158/13
f 117/159/11 116/23/11 94/24/11
f 118/160/22 117/159/22 96/151/22
f 119/161/21 118/160/21 98/153/21
f 112/162/20 161/258/20 128/144/20
f 120/163/19 119/161/19 100/154/19
f 113/164/18 112/162/18 86/146/18
f 170/165/17 120/163/17 102/156/17
f 114/166/16 113/164/16 88/147/16
f 115/167/15 114/166/15 90/149/15
f 161/258/13 112/162/13 171/175/13
f 112/162/13 113/164/13 171/175/13
f 113/164/13 114/166/13 121/174/13
f 114/166/13 115/167/13 122/64/13
f 115/167/13 116/23/13 122/64/13
f 116/23/13 117/159/13 122/64/13
f 117/159/13 118/160/13 122/64/13
f 118/160/13 119/161/13 123/168/13
f 119/161/13 120/163/13 172/170/13
f 120/163/13 170/165/13 172/170/13
f 172/170/13 123/168/13 119/161/13
f 122/64/13 121/174/13 114/166/13
f 121/174/13 171/175/13 113/164/13
f 177/169/32 126/173/32 123/168/32
f 126/173/13 177/169/13 176/171/13
f 124/172/13 125/63/13 126/173/13
f 125/63/33 124/172/33 121/174/33
f 126/173/34 125/63/34 122/64/34
f 124/172/35 176/171/35 171/175/35
f 150/122/17 149/177/17 129/176/17
f 149/177/19 151/179/19 131/178/19
f 151/179/21 152/181/21 133/180/21
f 152/181/22 153/183/22 135/182/22
f 153/183/11 154/76/11 137/73/11
f 154/76/14 155/185/14 139/184/14
f 155/185/15 156/187/15 141/186/15
f 156/187/16 157/189/16 143/188/16
f 157/189/18 158/191/18 145/190/18
f 158/191/20 159/247/20 147/138/20
f 136/192/5 164/219/5 165/84/5
f 147/250/12 127/249/12 129/195/12
f 129/195/12 131/259/12 133/260/12
f 133/260/12 135/261/12 137/241/12
f 137/241/12 139/262/12 141/193/12
f 141/193/12 143/263/12 145/194/12
f 145/194/12 147/250/12 129/195/12
f 129/195/12 133/260/12 137/241/12
f 137/241/12 141/193/12 129/195/12
f 128/144/13 130/198/13 149/196/13
f 130/198/13 132/201/13 151/199/13
f 134/200/13 152/202/13 151/199/13
f 136/192/13 153/203/13 152/202/13
f 138/86/13 154/96/13 153/203/13
f 140/204/13 155/206/13 154/96/13
f 142/205/13 156/208/13 155/206/13
f 144/207/13 157/210/13 156/208/13
f 146/209/13 158/211/13 157/210/13
f 148/158/13 159/257/13 158/211/13
f 138/86/6 165/84/6 166/212/6
f 140/204/7 166/212/7 167/213/7
f 142/205/8 167/213/8 168/214/8
f 128/144/1 161/258/1 160/215/1
f 144/207/9 168/214/9 169/216/9
f 130/198/2 160/215/2 162/217/2
f 146/209/10 169/216/10 170/165/10
f 132/201/3 162/217/3 163/218/3
f 134/200/4 163/218/4 164/219/4
f 162/217/13 160/215/13 171/175/13
f 160/215/13 161/258/13 171/175/13
f 171/175/13 173/223/13 162/217/13
f 174/113/13 175/220/13 167/213/13
f 175/220/13 172/170/13 168/214/13
f 168/214/13 172/170/13 169/216/13
f 173/223/13 174/113/13 163/218/13
f 163/218/13 162/217/13 173/223/13
f 165/84/13 164/219/13 174/113/13
f 164/219/13 163/218/13 174/113/13
f 167/213/13 166/212/13 174/113/13
f 166/212/13 165/84/13 174/113/13
f 168/214/13 167/213/13 175/220/13
f 175/220/36 180/221/36 177/169/36
f 176/171/13 177/169/13 180/221/13
f 180/221/13 179/116/13 178/222/13
f 173/223/37 178/222/37 179/116/37
f 172/224/29 177/264/29 176/225/29
f 174/113/38 179/116/38 180/221/38
f 171/175/39 176/171/39 178/222/39
